# xmcd
#
# Track frame offsets:
# 150
# 14086
# 27533
# 45089
# 57085
# 72599
# 89289
# 107515
# 127681
# 139713
# 154253
# 168313
#
# Disc length: 2401 seconds
#
#
# Revision: 0
# Processed by: cddbd v1.5.1PL2 Copyright (c) Steve Scherf et al.
# Submitted via: FreeRIP 2.944 
#
DISCID=97095f0c
DTITLE=Ken Mellons - Sweet
DYEAR=2004
DGENRE=Country
TTITLE0=Smack Dab
TTITLE1=Just What I'm Wantin' To Do
TTITLE2=Paint Me a Birmingham
TTITLE3=Climb My Tree
TTITLE4=Interstate Gypsy
TTITLE5=You Can't Make My Heart Believe
TTITLE6=Sweet
TTITLE7=All I Need Is a Bridge
TTITLE8=Single Again
TTITLE9=Any Time Any Place
TTITLE10=Instute Honky Tonks
TTITLE11=If I've Learned Anything at Al
EXTD=
EXTT0=
EXTT1=
EXTT2=
EXTT3=
EXTT4=
EXTT5=
EXTT6=
EXTT7=
EXTT8=
EXTT9=
EXTT10=
EXTT11=
PLAYORDER=
